<svg width="16" height="16" viewBox="0 0 16 16" fill="none" xmlns="http://www.w3.org/2000/svg">
<path fill-rule="evenodd" clip-rule="evenodd" d="M8.55213 4.96886V2.59056C8.37073 2.5703 8.1868 2.55895 8.00005 2.55895C7.81321 2.55895 7.62919 2.5703 7.4477 2.59056V4.96886H1.80822C2.93216 2.68238 5.2849 1.10438 8.00005 1.10438C10.7152 1.10438 13.0679 2.68238 14.1919 4.96886H8.55213ZM14.8955 8C14.8955 10.3422 13.7207 12.414 11.9306 13.6608C9.90914 11.6418 8.70445 8.92326 8.5661 6.0733H14.6196C14.798 6.68518 14.8955 7.3312 14.8955 8ZM7.99994 14.8956C6.94654 14.8956 5.9481 14.6574 5.05424 14.2333C6.42213 12.8017 7.42686 11.0704 7.99994 9.19712C8.57302 11.0704 9.57784 12.8017 10.9456 14.2333C10.0518 14.6574 9.05334 14.8956 7.99994 14.8956ZM1.10442 8C1.10442 7.3312 1.20197 6.68518 1.38037 6.0733H7.43385C7.29551 8.92335 6.09081 11.6418 4.06936 13.6608C2.2792 12.414 1.10442 10.3422 1.10442 8ZM8 0C3.58876 0 0 3.58874 0 8C0 12.4113 3.58876 16 8 16C12.4112 16 16 12.4113 16 8C16 3.58874 12.4112 0 8 0Z" fill="#333333"/>
</svg>
