<svg width="19" height="19" viewBox="0 0 19 19" fill="none" xmlns="http://www.w3.org/2000/svg">
<g clip-path="url(#clip0_354_55159)">
<path d="M16.1889 16.1889H13.3737V11.7801C13.3737 10.7288 13.3549 9.37541 11.9095 9.37541C10.4432 9.37541 10.2189 10.5209 10.2189 11.7036V16.1886H7.40377V7.12235H10.1063V8.36136H10.1441C10.4146 7.89891 10.8054 7.51847 11.275 7.26056C11.7446 7.00265 12.2753 6.87694 12.8107 6.8968C15.664 6.8968 16.1901 8.77365 16.1901 11.2153L16.1889 16.1889ZM4.2272 5.88312C3.32493 5.88327 2.59335 5.15192 2.5932 4.24964C2.59305 3.34737 3.32433 2.61579 4.22661 2.61564C5.12889 2.61542 5.86046 3.34677 5.86061 4.24905C5.86069 4.68234 5.68864 5.09792 5.38232 5.40437C5.076 5.71081 4.6605 5.88303 4.2272 5.88312ZM5.63484 16.189H2.81668V7.12235H5.63476V16.1889L5.63484 16.189ZM17.5924 0.0011387H1.40207C0.636871 -0.00747068 0.00935156 0.605502 0 1.3707V17.6285C0.00905469 18.3941 0.6365 19.0077 1.40199 18.9997H17.5924C18.3595 19.0092 18.9894 18.3956 19 17.6285V1.36944C18.9891 0.602756 18.3591 -0.0101426 17.5924 -0.000123024" fill="white"/>
</g>
<defs>
<clipPath id="clip0_354_55159">
<rect width="19" height="19" fill="white"/>
</clipPath>
</defs>
</svg>
